<?xml version="1.0" encoding="UTF-8" standalone="no"?>
<!-- Generator: Adobe Illustrator 19.0.0, SVG Export Plug-In . SVG Version: 6.00 Build 0)  -->

<svg
   xmlns:dc="http://purl.org/dc/elements/1.1/"
   xmlns:cc="http://creativecommons.org/ns#"
   xmlns:rdf="http://www.w3.org/1999/02/22-rdf-syntax-ns#"
   xmlns:svg="http://www.w3.org/2000/svg"
   xmlns="http://www.w3.org/2000/svg"
   xmlns:sodipodi="http://sodipodi.sourceforge.net/DTD/sodipodi-0.dtd"
   xmlns:inkscape="http://www.inkscape.org/namespaces/inkscape"
   version="1.1"
   id="Capa_1"
   x="0px"
   y="0px"
   viewBox="0 0 483.5 483.5"
   style="enable-background:new 0 0 483.5 483.5;"
   xml:space="preserve"
   width="512px"
   height="512px"
   inkscape:version="0.91 r13725"
   sodipodi:docname="add_contact.svg"><metadata
     id="metadata43"><rdf:RDF><cc:Work
         rdf:about=""><dc:format>image/svg+xml</dc:format><dc:type
           rdf:resource="http://purl.org/dc/dcmitype/StillImage" /><dc:title></dc:title></cc:Work></rdf:RDF></metadata><defs
     id="defs41" /><sodipodi:namedview
     pagecolor="#ffffc4"
     bordercolor="#666666"
     borderopacity="1"
     objecttolerance="10"
     gridtolerance="10"
     guidetolerance="10"
     inkscape:pageopacity="0"
     inkscape:pageshadow="2"
     inkscape:window-width="2496"
     inkscape:window-height="1418"
     id="namedview39"
     showgrid="false"
     inkscape:zoom="1.84375"
     inkscape:cx="123.03576"
     inkscape:cy="266.48229"
     inkscape:window-x="1912"
     inkscape:window-y="183"
     inkscape:window-maximized="1"
     inkscape:current-layer="Capa_1" /><g
     id="g3"
     transform="matrix(0.74713871,0,0,0.74713871,161.80282,56.660159)"><g
       id="g5"><path
         d="m 430.75,471.2 0,-67.8 c 0,-83.9 -55,-155.2 -130.7,-179.8 36.4,-20.5 61.1,-59.5 61.1,-104.2 C 361.15,53.6 307.55,0 241.75,0 c -65.8,0 -119.4,53.6 -119.4,119.4 0,44.7 24.7,83.7 61.1,104.2 -75.8,24.6 -130.7,95.9 -130.7,179.8 l 0,67.8 c 0,6.8 5.5,12.3 12.3,12.3 l 353.6,0 c 6.6,-0.1 12.1,-5.5 12.1,-12.3 z m -284,-351.8 c 0,-52.3 42.6,-94.9 94.9,-94.9 52.3,0 94.9,42.6 94.9,94.9 0,52.3 -42.6,94.9 -94.9,94.9 -52.3,0 -94.9,-42.6 -94.9,-94.9 z m 259.5,339.5 -329.2,0 0,-55.6 c 0,-90.7 73.8,-164.6 164.6,-164.6 90.8,0 164.6,73.8 164.6,164.6 l 0,55.6 z"
         id="path7"
         inkscape:connector-curvature="0"
         style="fill:#ffffff" /></g></g><g
     id="g9"
     transform="matrix(0.89618644,0,0,0.89618644,97.600507,26.441407)" /><g
     id="g11"
     transform="matrix(0.89618644,0,0,0.89618644,97.600507,26.441407)" /><g
     id="g13"
     transform="matrix(0.89618644,0,0,0.89618644,97.600507,26.441407)" /><g
     id="g15"
     transform="matrix(0.89618644,0,0,0.89618644,97.600507,26.441407)" /><g
     id="g17"
     transform="matrix(0.89618644,0,0,0.89618644,97.600507,26.441407)" /><g
     id="g19"
     transform="matrix(0.89618644,0,0,0.89618644,97.600507,26.441407)" /><g
     id="g21"
     transform="matrix(0.89618644,0,0,0.89618644,97.600507,26.441407)" /><g
     id="g23"
     transform="matrix(0.89618644,0,0,0.89618644,97.600507,26.441407)" /><g
     id="g25"
     transform="matrix(0.89618644,0,0,0.89618644,97.600507,26.441407)" /><g
     id="g27"
     transform="matrix(0.89618644,0,0,0.89618644,97.600507,26.441407)" /><g
     id="g29"
     transform="matrix(0.89618644,0,0,0.89618644,97.600507,26.441407)" /><g
     id="g31"
     transform="matrix(0.89618644,0,0,0.89618644,97.600507,26.441407)" /><g
     id="g33"
     transform="matrix(0.89618644,0,0,0.89618644,97.600507,26.441407)" /><g
     id="g35"
     transform="matrix(0.89618644,0,0,0.89618644,97.600507,26.441407)" /><g
     id="g37"
     transform="matrix(0.89618644,0,0,0.89618644,97.600507,26.441407)" /><path
     style="fill:none;fill-rule:evenodd;stroke:#ffffff;stroke-width:56.66015625;stroke-linecap:butt;stroke-linejoin:miter;stroke-miterlimit:4;stroke-dasharray:none;stroke-opacity:1"
     d="m 90,166 0,180"
     id="path4179"
     inkscape:connector-curvature="0"
     sodipodi:nodetypes="cc" /><path
     style="fill:none;fill-rule:evenodd;stroke:#ffffff;stroke-width:56.66015625;stroke-linecap:butt;stroke-linejoin:miter;stroke-miterlimit:4;stroke-dasharray:none;stroke-opacity:1"
     d="m 0,256 180,0"
     id="path4181"
     inkscape:connector-curvature="0" /></svg>