<?xml version="1.0" encoding="iso-8859-1"?>
<!-- Generator: Adobe Illustrator 19.0.0, SVG Export Plug-In . SVG Version: 6.00 Build 0)  -->
<svg xmlns="http://www.w3.org/2000/svg" xmlns:xlink="http://www.w3.org/1999/xlink" version="1.1" id="Capa_1" x="0px" y="0px" viewBox="0 0 487.766 487.766" style="enable-background:new 0 0 487.766 487.766;" xml:space="preserve" width="512px" height="512px">
<g>
	<g>
		<path d="M345.487,487.566c2.2,0.1,4.3,0.2,6.5,0.2c23.5,0,43.1-8.5,58.5-25.2c0.1-0.1,0.3-0.3,0.4-0.4    c5.5-6.6,11.7-12.6,18.3-18.9c4.5-4.3,9.1-8.7,13.4-13.3c20.5-21.4,20.4-48.5-0.2-69.1l-57-57c-9.8-10.2-21.5-15.6-33.9-15.6    c-12.3,0-24.1,5.3-34.2,15.4l-33.7,33.7c-3-1.7-6.1-3.2-9.1-4.7c-3.8-1.9-7.3-3.7-10.4-5.6c-30.9-19.6-58.9-45.2-85.7-78.1    c-13.5-17-22.4-31.2-28.7-45.8c8.8-8,17-16.3,24.9-24.4c2.9-2.9,5.8-5.9,8.8-8.9c21.4-21.4,21.4-47.9,0-69.2l-28.3-28.3    c-3.3-3.3-6.5-6.6-9.7-9.8c-6.3-6.4-12.8-13.1-19.3-19.1c-9.8-9.8-21.4-14.9-33.7-14.9c-12.2,0-24,5.1-34.2,14.9l-35.5,35.4    c-13,13-20.4,28.8-22,47.1c-1.8,22.8,2.4,47,13.2,76.2c16.7,45.1,41.8,87,79,131.8c45.3,54,99.7,96.7,161.9,126.8    C278.487,472.066,310.187,485.266,345.487,487.566z M111.787,318.266c-35.4-42.6-59.1-82.2-74.8-124.6    c-9.7-26.1-13.3-46.4-11.8-65.7c1.1-12.5,5.9-22.9,14.9-31.8l35.3-35.3c5.4-5.2,11.3-7.9,17.1-7.9c5.7,0,11.3,2.7,16.7,8    c6.3,5.9,12.4,12.1,18.8,18.6c3.2,3.3,6.5,6.7,9.9,10l28.3,28.3c11.6,11.6,11.6,23,0,34.6c-3,3-6,6-8.9,9    c-8.8,8.9-17,17.3-26.1,25.4c-0.2,0.2-0.3,0.3-0.5,0.5c-8.1,8.1-6.9,15.9-4.9,21.7c0.1,0.3,0.2,0.5,0.3,0.8    c7.3,17.6,17.6,34.3,33.4,54.3c28.5,35.1,58.5,62.4,91.7,83.5c4.1,2.6,8.4,4.8,12.6,6.9c3.8,1.9,7.3,3.7,10.4,5.6    c0.4,0.2,0.7,0.4,1.1,0.6c3.2,1.6,6.3,2.4,9.5,2.4c7.9,0,12.9-5,14.5-6.7l35.5-35.5c5.4-5.4,11.2-8.2,16.9-8.2    c7,0,12.7,4.4,16.4,8.2l57.2,57.2c14,14,7.6,26.6-0.3,34.9c-4,4.3-8.2,8.3-12.6,12.6c-6.7,6.4-13.6,13.1-19.9,20.6    c-10.8,11.6-23.6,17-40.3,17c-1.6,0-3.3-0.1-4.9-0.2c-31.1-2-59.9-14.1-81.6-24.4    C206.487,410.166,154.787,369.666,111.787,318.266z" fill="#FFFFFF"/>
		<path d="M268.087,89.266c-6.7-1.1-13,3.4-14.1,10c-1.1,6.7,3.4,13,10,14.1c27.5,4.7,52.5,17.7,72.5,37.6    c19.9,19.9,32.9,45,37.6,72.5c1,6,6.2,10.2,12.1,10.2c0.7,0,1.4-0.1,2.1-0.2c6.7-1.1,11.2-7.5,10-14.1    c-5.5-32.5-20.9-62.2-44.4-85.7C330.187,110.066,300.587,94.766,268.087,89.266z" fill="#FFFFFF"/>
		<path d="M475.187,229.466c0.7,0,1.4-0.1,2.1-0.2c6.7-1.1,11.2-7.5,10-14.1c-9.1-53.8-34.5-102.7-73.4-141.6    c-39-38.9-87.9-64.3-141.7-73.4c-6.7-1.1-13,3.4-14.1,10c-1.1,6.7,3.4,13,10,14.1c48.7,8.3,93.1,31.3,128.4,66.6    s58.3,79.7,66.6,128.4C464.087,225.266,469.287,229.466,475.187,229.466z" fill="#FFFFFF"/>
	</g>
</g>
<g>
</g>
<g>
</g>
<g>
</g>
<g>
</g>
<g>
</g>
<g>
</g>
<g>
</g>
<g>
</g>
<g>
</g>
<g>
</g>
<g>
</g>
<g>
</g>
<g>
</g>
<g>
</g>
<g>
</g>
</svg>
