<?xml version="1.0" encoding="iso-8859-1"?>
<!-- Generator: Adobe Illustrator 19.0.0, SVG Export Plug-In . SVG Version: 6.00 Build 0)  -->
<svg xmlns="http://www.w3.org/2000/svg" xmlns:xlink="http://www.w3.org/1999/xlink" version="1.1" id="Capa_1" x="0px" y="0px" viewBox="0 0 488.2 488.2" style="enable-background:new 0 0 488.2 488.2;" xml:space="preserve" width="512px" height="512px">
<g>
	<g>
		<path d="M99.68,324.5c48.2,57.5,106.2,102.9,172.3,135c25.2,12,58.9,26.1,96.3,28.5c2.3,0.1,4.6,0.2,6.8,0.2    c25.1,0,45.3-8.7,61.8-26.6c0.1-0.1,0.3-0.3,0.4-0.5c5.9-7.1,12.5-13.5,19.5-20.2c4.7-4.6,9.6-9.3,14.2-14.2    c21.5-22.4,21.5-50.9-0.2-72.5l-60.6-60.8c-10.3-10.7-22.6-16.4-35.6-16.4c-12.9,0-25.3,5.6-35.9,16.2l-36.3,36.3    c-3.4-1.9-6.8-3.7-10.2-5.3c-4-2-7.8-3.9-11.2-6c-33-20.9-63-48.3-91.6-83.5c-14.6-18.4-24.2-33.8-31-49.5    c9.5-8.6,18.4-17.7,27-26.4c3.1-3.1,6.2-6.3,9.3-9.4c22.4-22.4,22.4-50.3,0-72.7l-30.1-30.1c-3.5-3.5-6.9-7-10.3-10.5    c-6.7-6.9-13.6-14-20.5-20.4C123.48,5.4,111.28,0,98.38,0c-12.8,0-25.1,5.4-35.9,15.7l-37.8,37.9C10.98,67.2,3.18,84,1.58,103.3    c-2,24.2,2.5,49.9,14,80.9C33.38,232.2,60.08,276.8,99.68,324.5z M25.98,105.3c1.2-13.5,6.4-24.8,16.1-34.5l37.7-37.7    c5.9-5.7,12.4-8.7,18.8-8.7c6.3,0,12.5,2.9,18.4,8.8c6.8,6.3,13.2,12.9,20,19.9c3.5,3.5,6.9,7.1,10.5,10.7l30.1,30.1    c12.8,12.8,12.8,25.2,0,38c-3.2,3.2-6.3,6.4-9.5,9.5c-9.4,9.5-18.2,18.5-27.9,27.1c-0.2,0.2-0.3,0.3-0.5,0.5    c-8.3,8.3-7.1,16.3-5.1,22.3c0.1,0.3,0.2,0.5,0.3,0.8c7.8,18.7,18.7,36.5,35.5,57.7c30.4,37.4,62.3,66.4,97.6,88.8    c4.4,2.8,8.9,5.1,13.4,7.3c4,2,7.9,3.9,11.2,6c0.4,0.2,0.7,0.4,1.1,0.6c3.3,1.7,6.5,2.5,9.7,2.5c8.1,0,13.2-5.2,14.9-6.9    l37.8-37.8c11.7-11.7,25.1-12,36.6,0l61,61c12,12,12,25.6-0.3,38.3c-4.3,4.6-8.8,8.9-13.5,13.4c-7.1,6.9-14.5,13.9-21.1,21.9    c-11.7,12.6-25.5,18.5-43.6,18.5c-1.8,0-3.5-0.1-5.3-0.2c-33.3-2.2-64.2-15.1-87.3-26.1c-63-30.5-118.2-73.7-164.1-128.6    c-37.8-45.5-63.2-87.8-79.9-133.1C28.28,148.1,24.28,125.7,25.98,105.3z" fill="#FFFFFF"/>
		<path d="M296.28,192c2.4,2.4,5.5,3.6,8.7,3.6s6.3-1.2,8.7-3.6l53.9-53.9l53.9,53.9c2.4,2.4,5.5,3.6,8.7,3.6s6.3-1.2,8.7-3.6    c4.8-4.8,4.8-12.5,0-17.3l-53.9-53.9l53.9-53.9c4.8-4.8,4.8-12.5,0-17.3s-12.5-4.8-17.3,0l-53.9,53.9l-53.9-53.9    c-4.8-4.8-12.5-4.8-17.3,0s-4.8,12.5,0,17.3l53.9,53.9l-53.9,53.9C291.48,179.4,291.48,187.2,296.28,192z" fill="#FFFFFF"/>
	</g>
</g>
<g>
</g>
<g>
</g>
<g>
</g>
<g>
</g>
<g>
</g>
<g>
</g>
<g>
</g>
<g>
</g>
<g>
</g>
<g>
</g>
<g>
</g>
<g>
</g>
<g>
</g>
<g>
</g>
<g>
</g>
</svg>
