<?xml version="1.0" encoding="UTF-8" standalone="no"?>
<!-- Generator: Adobe Illustrator 19.0.0, SVG Export Plug-In . SVG Version: 6.00 Build 0)  -->

<svg
   xmlns:dc="http://purl.org/dc/elements/1.1/"
   xmlns:cc="http://creativecommons.org/ns#"
   xmlns:rdf="http://www.w3.org/1999/02/22-rdf-syntax-ns#"
   xmlns:svg="http://www.w3.org/2000/svg"
   xmlns="http://www.w3.org/2000/svg"
   xmlns:sodipodi="http://sodipodi.sourceforge.net/DTD/sodipodi-0.dtd"
   xmlns:inkscape="http://www.inkscape.org/namespaces/inkscape"
   version="1.1"
   id="Capa_1"
   x="0px"
   y="0px"
   viewBox="0 0 488.2 488.2"
   style="enable-background:new 0 0 488.2 488.2;"
   xml:space="preserve"
   width="512px"
   height="512px"
   inkscape:version="0.91 r13725"
   sodipodi:docname="end_call.svg"><metadata
     id="metadata45"><rdf:RDF><cc:Work
         rdf:about=""><dc:format>image/svg+xml</dc:format><dc:type
           rdf:resource="http://purl.org/dc/dcmitype/StillImage" /><dc:title></dc:title></cc:Work></rdf:RDF></metadata><defs
     id="defs43" /><sodipodi:namedview
     pagecolor="#ffff79"
     bordercolor="#666666"
     borderopacity="1"
     objecttolerance="10"
     gridtolerance="10"
     guidetolerance="10"
     inkscape:pageopacity="0"
     inkscape:pageshadow="2"
     inkscape:window-width="2496"
     inkscape:window-height="1418"
     id="namedview41"
     showgrid="false"
     inkscape:zoom="1.3037281"
     inkscape:cx="208.91391"
     inkscape:cy="302.7167"
     inkscape:window-x="1912"
     inkscape:window-y="183"
     inkscape:window-maximized="1"
     inkscape:current-layer="g5" /><g
     id="g3"
     transform="matrix(-0.58806069,0.59986201,-0.59986201,-0.58806069,535.29337,215.4534)"><g
       id="g5"><path
         d="m 143.45078,281.59052 c 48.2,57.5 106.2,102.9 172.3,135 25.2,12 58.9,26.1 96.3,28.5 2.3,0.1 4.6,0.2 6.8,0.2 25.1,0 45.3,-8.7 61.8,-26.6 0.1,-0.1 0.3,-0.3 0.4,-0.5 5.9,-7.1 12.5,-13.5 19.5,-20.2 4.7,-4.6 9.6,-9.3 14.2,-14.2 21.5,-22.4 21.5,-50.9 -0.2,-72.5 l -60.6,-60.8 c -10.3,-10.7 -22.6,-16.4 -35.6,-16.4 -12.9,0 -25.3,5.6 -35.9,16.2 l -36.3,36.3 c -3.4,-1.9 -6.8,-3.7 -10.2,-5.3 -4,-2 -7.8,-3.9 -11.2,-6 -33,-20.9 -63,-48.3 -91.6,-83.5 -14.6,-18.4 -24.2,-33.8 -31,-49.5 9.5,-8.6 18.4,-17.7 27,-26.4 3.1,-3.1 6.2,-6.3 9.3,-9.4 22.4,-22.400055 22.4,-50.300135 0,-72.700135 l -30.1,-30.099998 c -3.5,-3.49999854 -6.9,-6.9999976 -10.3,-10.4999966 -6.7,-6.8999994 -13.6,-13.9999984 -20.5,-20.3999984 -10.3,-10.300002 -22.5,-15.700004 -35.4,-15.700004 -12.80002,0 -25.10003,5.400002 -35.90005,15.700004 L 68.450726,10.690385 c -13.7,13.6 -21.500001,30.4 -23.100001,49.70001 -2,24.200075 2.5,49.900125 14.000001,80.900125 17.8,48 44.500004,92.6 84.100054,140.3 z M 69.750726,62.3904 c 1.2,-13.500015 6.4,-24.800015 16.1,-34.500015 L 123.55075,-9.8096086 c 5.90001,-5.6999994 12.40002,-8.7000004 18.80003,-8.7000004 6.3,0 12.5,2.900001 18.4,8.8000004 6.8,6.299998 13.2,12.8999961 20,19.8999936 3.5,3.5 6.9,7.1 10.5,10.7 l 30.1,30.1 c 12.8,12.80002 12.8,25.20006 0,38.0001 -3.2,3.20001 -6.3,6.40002 -9.5,9.50003 -9.4,9.500005 -18.2,18.500005 -27.9,27.100005 -0.2,0.2 -0.3,0.3 -0.5,0.5 -8.3,8.3 -7.1,16.3 -5.1,22.3 0.1,0.3 0.2,0.5 0.3,0.8 7.8,18.7 18.7,36.5 35.5,57.7 30.4,37.4 62.3,66.4 97.6,88.8 4.4,2.8 8.9,5.1 13.4,7.3 4,2 7.9,3.9 11.2,6 0.4,0.2 0.7,0.4 1.1,0.6 3.3,1.7 6.5,2.5 9.7,2.5 8.1,0 13.2,-5.2 14.9,-6.9 l 37.8,-37.8 c 11.7,-11.7 25.1,-12 36.6,0 l 61,61 c 12,12 12,25.6 -0.3,38.3 -4.3,4.6 -8.8,8.9 -13.5,13.4 -7.1,6.9 -14.5,13.9 -21.1,21.9 -11.7,12.6 -25.5,18.5 -43.6,18.5 -1.8,0 -3.5,-0.1 -5.3,-0.2 -33.3,-2.2 -64.2,-15.1 -87.3,-26.1 -63,-30.5 -118.2,-73.7 -164.1,-128.6 -37.80002,-45.5 -63.200054,-87.8 -79.900054,-133.1 -10.3,-27.3 -14.3,-49.700055 -12.6,-70.10012 z"
         id="path7"
         inkscape:connector-curvature="0"
         style="fill:#ffffff" /><path
         style="fill:#000000;fill-opacity:1;fill-rule:evenodd;stroke:#ffffff;stroke-width:16.90064621;stroke-linecap:butt;stroke-linejoin:miter;stroke-miterlimit:4;stroke-dasharray:none;stroke-opacity:1"
         d="M 579.09472,324.65889 171.94873,-90.657789"
         id="path4182"
         inkscape:connector-curvature="0" /></g></g><g
     id="g11" /><g
     id="g13" /><g
     id="g15" /><g
     id="g17" /><g
     id="g19" /><g
     id="g21" /><g
     id="g23" /><g
     id="g25" /><g
     id="g27" /><g
     id="g29" /><g
     id="g31" /><g
     id="g33" /><g
     id="g35" /><g
     id="g37" /><g
     id="g39" /></svg>