<?xml version="1.0" encoding="UTF-8" standalone="no"?>
<!-- Generator: Adobe Illustrator 19.0.0, SVG Export Plug-In . SVG Version: 6.00 Build 0)  -->

<svg
   xmlns:osb="http://www.openswatchbook.org/uri/2009/osb"
   xmlns:dc="http://purl.org/dc/elements/1.1/"
   xmlns:cc="http://creativecommons.org/ns#"
   xmlns:rdf="http://www.w3.org/1999/02/22-rdf-syntax-ns#"
   xmlns:svg="http://www.w3.org/2000/svg"
   xmlns="http://www.w3.org/2000/svg"
   xmlns:sodipodi="http://sodipodi.sourceforge.net/DTD/sodipodi-0.dtd"
   xmlns:inkscape="http://www.inkscape.org/namespaces/inkscape"
   version="1.1"
   id="Capa_1"
   x="0px"
   y="0px"
   viewBox="0 0 490.9 490.9"
   style="enable-background:new 0 0 490.9 490.9;"
   xml:space="preserve"
   width="512px"
   height="512px"
   inkscape:version="0.91 r13725"
   sodipodi:docname="no_microphone.svg"><metadata
     id="metadata45"><rdf:RDF><cc:Work
         rdf:about=""><dc:format>image/svg+xml</dc:format><dc:type
           rdf:resource="http://purl.org/dc/dcmitype/StillImage" /><dc:title /></cc:Work></rdf:RDF></metadata><defs
     id="defs43"><linearGradient
       id="linearGradient5659"
       osb:paint="solid"><stop
         style="stop-color:#ffffff;stop-opacity:1;"
         offset="0"
         id="stop5661" /></linearGradient></defs><sodipodi:namedview
     pagecolor="#ffff96"
     bordercolor="#666666"
     borderopacity="1"
     objecttolerance="10"
     gridtolerance="10"
     guidetolerance="10"
     inkscape:pageopacity="0"
     inkscape:pageshadow="2"
     inkscape:window-width="2496"
     inkscape:window-height="1418"
     id="namedview41"
     showgrid="false"
     inkscape:zoom="0.92187499"
     inkscape:cx="32.097936"
     inkscape:cy="133.20857"
     inkscape:window-x="1912"
     inkscape:window-y="183"
     inkscape:window-maximized="1"
     inkscape:current-layer="Capa_1" /><g
     id="g3"><g
       id="g5"><path
         d="M245.5,322.9c53,0,96.2-43.2,96.2-96.2V96.2c0-53-43.2-96.2-96.2-96.2s-96.2,43.2-96.2,96.2v130.5    C149.3,279.8,192.5,322.9,245.5,322.9z M173.8,96.2c0-39.5,32.2-71.7,71.7-71.7s71.7,32.2,71.7,71.7v130.5    c0,39.5-32.2,71.7-71.7,71.7s-71.7-32.2-71.7-71.7V96.2z"
         fill="#FFFFFF"
         id="path7" /><path
         d="M94.4,214.5c-6.8,0-12.3,5.5-12.3,12.3c0,85.9,66.7,156.6,151.1,162.8v76.7h-63.9c-6.8,0-12.3,5.5-12.3,12.3    s5.5,12.3,12.3,12.3h152.3c6.8,0,12.3-5.5,12.3-12.3s-5.5-12.3-12.3-12.3h-63.9v-76.7c84.4-6.3,151.1-76.9,151.1-162.8    c0-6.8-5.5-12.3-12.3-12.3s-12.3,5.5-12.3,12.3c0,76.6-62.3,138.9-138.9,138.9s-138.9-62.3-138.9-138.9    C106.6,220,101.2,214.5,94.4,214.5z"
         fill="#FFFFFF"
         id="path9" /></g></g><g
     id="g11" /><g
     id="g13" /><g
     id="g15" /><g
     id="g17" /><g
     id="g19" /><g
     id="g21" /><g
     id="g23" /><g
     id="g25" /><g
     id="g27" /><g
     id="g29" /><g
     id="g31" /><g
     id="g33" /><g
     id="g35" /><g
     id="g37" /><g
     id="g39" /><path
     style="opacity:1;fill:#ffffff;fill-opacity:1;stroke:#ffffff;stroke-width:9.58788967;stroke-miterlimit:4;stroke-dasharray:none;stroke-opacity:1"
     d="m -26.135353,517.79405 -5.139527,-5.13952 269.4812,-269.51798 C 386.42096,94.901686 508.3145,-26.590399 509.08085,-26.845848 c 1.56679,-0.522259 10.48943,8.494164 10.49998,10.610327 0.01,1.831674 -537.292588,539.169111 -539.133273,539.169111 -0.79386,0 -3.75617,-2.31279 -6.58291,-5.13954 z"
     id="path4213"
     inkscape:connector-curvature="0" /></svg>