<?xml version="1.0" encoding="UTF-8" standalone="no"?>
<!-- Generator: Adobe Illustrator 19.0.0, SVG Export Plug-In . SVG Version: 6.00 Build 0)  -->

<svg
   xmlns:osb="http://www.openswatchbook.org/uri/2009/osb"
   xmlns:dc="http://purl.org/dc/elements/1.1/"
   xmlns:cc="http://creativecommons.org/ns#"
   xmlns:rdf="http://www.w3.org/1999/02/22-rdf-syntax-ns#"
   xmlns:svg="http://www.w3.org/2000/svg"
   xmlns="http://www.w3.org/2000/svg"
   xmlns:sodipodi="http://sodipodi.sourceforge.net/DTD/sodipodi-0.dtd"
   xmlns:inkscape="http://www.inkscape.org/namespaces/inkscape"
   version="1.1"
   id="Capa_1"
   x="0px"
   y="0px"
   viewBox="0 0 490.9 490.9"
   style="enable-background:new 0 0 490.9 490.9;"
   xml:space="preserve"
   width="512px"
   height="512px"
   inkscape:version="0.91 r13725"
   sodipodi:docname="no_microphone.svg"><metadata
     id="metadata45"><rdf:RDF><cc:Work
         rdf:about=""><dc:format>image/svg+xml</dc:format><dc:type
           rdf:resource="http://purl.org/dc/dcmitype/StillImage" /><dc:title></dc:title></cc:Work></rdf:RDF></metadata><defs
     id="defs43"><linearGradient
       id="linearGradient5659"
       osb:paint="solid"><stop
         style="stop-color:#ffffff;stop-opacity:1;"
         offset="0"
         id="stop5661" /></linearGradient></defs><sodipodi:namedview
     pagecolor="#ffff96"
     bordercolor="#666666"
     borderopacity="1"
     objecttolerance="10"
     gridtolerance="10"
     guidetolerance="10"
     inkscape:pageopacity="0"
     inkscape:pageshadow="2"
     inkscape:window-width="2496"
     inkscape:window-height="1418"
     id="namedview41"
     showgrid="false"
     inkscape:zoom="0.65186406"
     inkscape:cx="95.144612"
     inkscape:cy="316.4576"
     inkscape:window-x="1912"
     inkscape:window-y="183"
     inkscape:window-maximized="1"
     inkscape:current-layer="Capa_1" /><g
     id="g3"><g
       id="g5"><path
         d="M245.5,322.9c53,0,96.2-43.2,96.2-96.2V96.2c0-53-43.2-96.2-96.2-96.2s-96.2,43.2-96.2,96.2v130.5    C149.3,279.8,192.5,322.9,245.5,322.9z M173.8,96.2c0-39.5,32.2-71.7,71.7-71.7s71.7,32.2,71.7,71.7v130.5    c0,39.5-32.2,71.7-71.7,71.7s-71.7-32.2-71.7-71.7V96.2z"
         fill="#FFFFFF"
         id="path7" /><path
         d="M94.4,214.5c-6.8,0-12.3,5.5-12.3,12.3c0,85.9,66.7,156.6,151.1,162.8v76.7h-63.9c-6.8,0-12.3,5.5-12.3,12.3    s5.5,12.3,12.3,12.3h152.3c6.8,0,12.3-5.5,12.3-12.3s-5.5-12.3-12.3-12.3h-63.9v-76.7c84.4-6.3,151.1-76.9,151.1-162.8    c0-6.8-5.5-12.3-12.3-12.3s-12.3,5.5-12.3,12.3c0,76.6-62.3,138.9-138.9,138.9s-138.9-62.3-138.9-138.9    C106.6,220,101.2,214.5,94.4,214.5z"
         fill="#FFFFFF"
         id="path9" /></g></g><g
     id="g11" /><g
     id="g13" /><g
     id="g15" /><g
     id="g17" /><g
     id="g19" /><g
     id="g21" /><g
     id="g23" /><g
     id="g25" /><g
     id="g27" /><g
     id="g29" /><g
     id="g31" /><g
     id="g33" /><g
     id="g35" /><g
     id="g37" /><g
     id="g39" /><path
     style="fill:#ffffff;fill-rule:evenodd;stroke:#000000;stroke-width:19.1757801;stroke-linecap:butt;stroke-linejoin:miter;stroke-opacity:1;stroke-miterlimit:4;stroke-dasharray:none;fill-opacity:1"
     d="M 497.14458,-6.2446057 -45.5961,536.49608"
     id="path4191"
     inkscape:connector-curvature="0" /><path
     style="opacity:1;fill:#ffffff;fill-opacity:1;stroke:#fff0ff;stroke-width:1.20000011;stroke-miterlimit:4;stroke-dasharray:none;stroke-opacity:1"
     d="m -48.018792,558.46526 -6.027291,-6.17251 282.577923,-282.57792 282.57792,-282.577921 6.17251,6.0272905 c 3.39487,3.3150097 6.1725,6.70783014 6.1725,7.5396008 0,2.0193853 -561.782455,563.8655397 -563.840028,563.9039697 -0.883434,0.0165 -4.318524,-2.74764 -7.633534,-6.14251 z"
     id="path4207"
     inkscape:connector-curvature="0"
     transform="scale(0.95878901,0.95878901)" /><path
     style="opacity:1;fill:#ffffff;fill-opacity:1;stroke:#ffffff;stroke-width:9.99999995;stroke-miterlimit:4;stroke-dasharray:none;stroke-opacity:1"
     d="M -47.258711,558.05007 -52.619147,552.68964 228.44497,271.58715 C 383.03022,116.98079 510.16303,-9.7333162 510.96232,-9.9997453 c 1.63413,-0.5447067 10.94029,8.8592632 10.95129,11.0663832 0.01,1.9104038 -560.386661,562.3438721 -562.306462,562.3438721 -0.827982,0 -3.917619,-2.41219 -6.865859,-5.36044 z"
     id="path4213"
     inkscape:connector-curvature="0"
     transform="scale(0.95878901,0.95878901)" /></svg>